<svg width="15" height="19" viewBox="0 0 15 19" fill="none" xmlns="http://www.w3.org/2000/svg">
<path d="M0 0.730427V18.2692C0 18.463 0.0790178 18.6489 0.21967 18.786C0.360322 18.923 0.551088 19 0.75 19H9V16.8076C9 16.4028 9.3345 16.0769 9.75 16.0769H11.25C11.6655 16.0769 12 16.4028 12 16.8076V19H14.25C14.4489 19 14.6397 18.923 14.7803 18.786C14.921 18.6489 15 18.463 15 18.2692V3.65356C15.0001 3.48762 14.9422 3.32659 14.8359 3.19696C14.7296 3.06733 14.5811 2.97682 14.415 2.94031L0.915 0.0171825C0.805272 -0.00637217 0.691525 -0.00570137 0.582097 0.0191456C0.472669 0.0439926 0.370335 0.0923859 0.282597 0.160778C0.194859 0.22917 0.123941 0.315827 0.0750418 0.414396C0.0261427 0.512965 0.000502201 0.620947 0 0.730427ZM3.75 4.38434H5.25C5.44891 4.38434 5.63968 4.46133 5.78033 4.59838C5.92098 4.73543 6 4.92131 6 5.11512C6 5.30894 5.92098 5.49482 5.78033 5.63187C5.63968 5.76891 5.44891 5.84591 5.25 5.84591H3.75C3.55109 5.84591 3.36032 5.76891 3.21967 5.63187C3.07902 5.49482 3 5.30894 3 5.11512C3 4.92131 3.07902 4.73543 3.21967 4.59838C3.36032 4.46133 3.55109 4.38434 3.75 4.38434ZM9.75 4.38434H11.25C11.4489 4.38434 11.6397 4.46133 11.7803 4.59838C11.921 4.73543 12 4.92131 12 5.11512C12 5.30894 11.921 5.49482 11.7803 5.63187C11.6397 5.76891 11.4489 5.84591 11.25 5.84591H9.75C9.55109 5.84591 9.36032 5.76891 9.21967 5.63187C9.07902 5.49482 9 5.30894 9 5.11512C9 4.92131 9.07902 4.73543 9.21967 4.59838C9.36032 4.46133 9.55109 4.38434 9.75 4.38434ZM3.75 7.30747H5.25C5.44891 7.30747 5.63968 7.38447 5.78033 7.52151C5.92098 7.65856 6 7.84444 6 8.03826C6 8.23207 5.92098 8.41795 5.78033 8.555C5.63968 8.69205 5.44891 8.76904 5.25 8.76904H3.75C3.55109 8.76904 3.36032 8.69205 3.21967 8.555C3.07902 8.41795 3 8.23207 3 8.03826C3 7.84444 3.07902 7.65856 3.21967 7.52151C3.36032 7.38447 3.55109 7.30747 3.75 7.30747ZM9.75 7.30747H11.25C11.4489 7.30747 11.6397 7.38447 11.7803 7.52151C11.921 7.65856 12 7.84444 12 8.03826C12 8.23207 11.921 8.41795 11.7803 8.555C11.6397 8.69205 11.4489 8.76904 11.25 8.76904H9.75C9.55109 8.76904 9.36032 8.69205 9.21967 8.555C9.07902 8.41795 9 8.23207 9 8.03826C9 7.84444 9.07902 7.65856 9.21967 7.52151C9.36032 7.38447 9.55109 7.30747 9.75 7.30747ZM3.75 10.2306H5.25C5.44891 10.2306 5.63968 10.3076 5.78033 10.4446C5.92098 10.5817 6 10.7676 6 10.9614C6 11.1552 5.92098 11.3411 5.78033 11.4781C5.63968 11.6152 5.44891 11.6922 5.25 11.6922H3.75C3.55109 11.6922 3.36032 11.6152 3.21967 11.4781C3.07902 11.3411 3 11.1552 3 10.9614C3 10.7676 3.07902 10.5817 3.21967 10.4446C3.36032 10.3076 3.55109 10.2306 3.75 10.2306ZM9.75 10.2306H11.25C11.4489 10.2306 11.6397 10.3076 11.7803 10.4446C11.921 10.5817 12 10.7676 12 10.9614C12 11.1552 11.921 11.3411 11.7803 11.4781C11.6397 11.6152 11.4489 11.6922 11.25 11.6922H9.75C9.55109 11.6922 9.36032 11.6152 9.21967 11.4781C9.07902 11.3411 9 11.1552 9 10.9614C9 10.7676 9.07902 10.5817 9.21967 10.4446C9.36032 10.3076 9.55109 10.2306 9.75 10.2306ZM3.75 13.1537H5.25C5.44891 13.1537 5.63968 13.2307 5.78033 13.3678C5.92098 13.5048 6 13.6907 6 13.8845C6 14.0783 5.92098 14.2642 5.78033 14.4013C5.63968 14.5383 5.44891 14.6153 5.25 14.6153H3.75C3.55109 14.6153 3.36032 14.5383 3.21967 14.4013C3.07902 14.2642 3 14.0783 3 13.8845C3 13.6907 3.07902 13.5048 3.21967 13.3678C3.36032 13.2307 3.55109 13.1537 3.75 13.1537ZM9.75 13.1537H11.25C11.4489 13.1537 11.6397 13.2307 11.7803 13.3678C11.921 13.5048 12 13.6907 12 13.8845C12 14.0783 11.921 14.2642 11.7803 14.4013C11.6397 14.5383 11.4489 14.6153 11.25 14.6153H9.75C9.55109 14.6153 9.36032 14.5383 9.21967 14.4013C9.07902 14.2642 9 14.0783 9 13.8845C9 13.6907 9.07902 13.5048 9.21967 13.3678C9.36032 13.2307 9.55109 13.1537 9.75 13.1537ZM3.75 16.0769H5.25C5.44891 16.0769 5.63968 16.1539 5.78033 16.2909C5.92098 16.428 6 16.6138 6 16.8076C6 17.0015 5.92098 17.1873 5.78033 17.3244C5.63968 17.4614 5.44891 17.5384 5.25 17.5384H3.75C3.55109 17.5384 3.36032 17.4614 3.21967 17.3244C3.07902 17.1873 3 17.0015 3 16.8076C3 16.6138 3.07902 16.428 3.21967 16.2909C3.36032 16.1539 3.55109 16.0769 3.75 16.0769Z" fill="#A2A2A2"/>
</svg>
