<svg width="20" height="20" viewBox="0 0 20 20" fill="none" xmlns="http://www.w3.org/2000/svg">
<path d="M15.8268 14.1609H17.4927C17.9925 14.1609 18.3257 13.8277 18.3257 13.3279V10.829C18.3257 10.0793 17.7426 9.4129 17.0762 9.2463C15.5769 8.82981 13.3278 8.33001 13.3278 8.33001C13.3278 8.33001 12.2449 7.16383 11.4952 6.41414C11.0787 6.08095 10.5789 5.83105 9.99585 5.83105H4.16494C3.66515 5.83105 3.24866 6.16425 2.99876 6.58074L1.83258 8.9964C1.72228 9.31812 1.66599 9.65588 1.66599 9.99599V13.3279C1.66599 13.8277 1.99918 14.1609 2.49897 14.1609H4.16494" stroke="#E63946" stroke-width="1.66597" stroke-linecap="round" stroke-linejoin="round"/>
<path d="M5.83089 15.8271C6.75098 15.8271 7.49686 15.0812 7.49686 14.1611C7.49686 13.241 6.75098 12.4951 5.83089 12.4951C4.9108 12.4951 4.16492 13.241 4.16492 14.1611C4.16492 15.0812 4.9108 15.8271 5.83089 15.8271Z" stroke="#E63946" stroke-width="1.66597" stroke-linecap="round" stroke-linejoin="round"/>
<path d="M7.49689 14.1611H12.4948" stroke="#E63946" stroke-width="1.66597" stroke-linecap="round" stroke-linejoin="round"/>
<path d="M14.1608 15.8271C15.0808 15.8271 15.8267 15.0812 15.8267 14.1611C15.8267 13.241 15.0808 12.4951 14.1608 12.4951C13.2407 12.4951 12.4948 13.241 12.4948 14.1611C12.4948 15.0812 13.2407 15.8271 14.1608 15.8271Z" stroke="#E63946" stroke-width="1.66597" stroke-linecap="round" stroke-linejoin="round"/>
</svg>
