<svg width="23" height="23" viewBox="0 0 23 23" fill="none" xmlns="http://www.w3.org/2000/svg">
<path fill-rule="evenodd" clip-rule="evenodd" d="M16.4796 12.0217C15.1681 12.5403 13.7524 12.8601 12.2717 12.943C12.0163 12.9573 11.759 12.9645 11.5 12.9645C11.241 12.9645 10.9837 12.9573 10.7283 12.943C9.24728 12.8601 7.83127 12.5401 6.51949 12.0213C3.76661 10.9327 1.47273 8.96841 0 6.48225C2.2955 2.60715 6.58596 0 11.5 0C16.414 0 20.7045 2.60715 23 6.48225C21.5271 8.96868 19.2329 10.9331 16.4796 12.0217Z" fill="white"/>
<path d="M6.51929 13.0302C6.20215 12.9048 5.8911 12.7677 5.5867 12.6196C4.59742 13.3002 3.76111 14.1478 3.13138 15.1148C4.20176 16.7584 5.86896 18.0571 7.86975 18.7768C8.82316 19.1198 9.85231 19.3313 10.9287 19.3861H12.0504C13.1266 19.3313 15.0181 20.3725 12.2715 22.9998C14.2726 22.2801 18.7773 16.7586 19.8478 15.1148C19.2199 14.1505 18.3865 13.305 17.4009 12.6254C17.1001 12.7715 16.7927 12.9067 16.4794 13.0306C15.1679 13.5491 13.7522 13.869 12.2715 13.9518C12.0161 13.9661 11.7588 13.9734 11.4998 13.9734C11.2408 13.9734 10.9835 13.9661 10.7281 13.9518C9.24708 13.8689 7.83108 13.549 6.51929 13.0302Z" fill="white"/>
<rect x="5.95468" y="4.82373" width="11.1149" height="3.87643" rx="1.93821" fill="#041E41"/>
<ellipse cx="14.5772" cy="6.74046" rx="0.727761" ry="0.710679" fill="white"/>
<ellipse cx="11.4896" cy="16.3025" rx="0.72776" ry="0.710679" fill="#162550"/>
<ellipse cx="8.57906" cy="6.74046" rx="0.72776" ry="0.710679" fill="white"/>
<ellipse cx="8.57906" cy="16.3025" rx="0.72776" ry="0.710679" fill="#162550"/>
<ellipse cx="14.4011" cy="16.3025" rx="0.727761" ry="0.710679" fill="#162550"/>
</svg>
