<svg width="20" height="20" viewBox="0 0 20 20" fill="none" xmlns="http://www.w3.org/2000/svg">
<path d="M6.66389 2.49902H4.16494C3.72309 2.49902 3.29934 2.67454 2.98691 2.98698C2.67448 3.29941 2.49896 3.72315 2.49896 4.165V6.66396" stroke="#E63946" stroke-width="1.66597" stroke-linecap="round" stroke-linejoin="round"/>
<path d="M17.4927 6.66396V4.165C17.4927 3.72315 17.3172 3.29941 17.0048 2.98698C16.6923 2.67454 16.2686 2.49902 15.8267 2.49902H13.3278" stroke="#E63946" stroke-width="1.66597" stroke-linecap="round" stroke-linejoin="round"/>
<path d="M2.49896 13.3281V15.8271C2.49896 16.2689 2.67448 16.6927 2.98691 17.0051C3.29934 17.3175 3.72309 17.4931 4.16494 17.4931H6.66389" stroke="#E63946" stroke-width="1.66597" stroke-linecap="round" stroke-linejoin="round"/>
<path d="M13.3278 17.4931H15.8267C16.2686 17.4931 16.6923 17.3175 17.0048 17.0051C17.3172 16.6927 17.4927 16.2689 17.4927 15.8271V13.3281" stroke="#E63946" stroke-width="1.66597" stroke-linecap="round" stroke-linejoin="round"/>
</svg>
