<svg width="21" height="21" viewBox="0 0 21 21" fill="none" xmlns="http://www.w3.org/2000/svg">
<path d="M1.75737 10.5223C1.68635 10.331 1.68635 10.1205 1.75737 9.92922C2.44906 8.25206 3.62316 6.81805 5.13084 5.80898C6.63851 4.79991 8.41185 4.26123 10.226 4.26123C12.0402 4.26123 13.8136 4.79991 15.3213 5.80898C16.8289 6.81805 18.003 8.25206 18.6947 9.92922C18.7657 10.1205 18.7657 10.331 18.6947 10.5223C18.003 12.1995 16.8289 13.6335 15.3213 14.6426C13.8136 15.6516 12.0402 16.1903 10.226 16.1903C8.41185 16.1903 6.63851 15.6516 5.13084 14.6426C3.62316 13.6335 2.44906 12.1995 1.75737 10.5223Z" stroke="#E63946" stroke-width="1.7043" stroke-linecap="round" stroke-linejoin="round"/>
<path d="M10.2264 12.7821C11.6383 12.7821 12.7828 11.6375 12.7828 10.2256C12.7828 8.81375 11.6383 7.66919 10.2264 7.66919C8.81449 7.66919 7.66992 8.81375 7.66992 10.2256C7.66992 11.6375 8.81449 12.7821 10.2264 12.7821Z" stroke="#E63946" stroke-width="1.7043" stroke-linecap="round" stroke-linejoin="round"/>
</svg>
