<svg width="24" height="24" viewBox="0 0 24 24" fill="none" xmlns="http://www.w3.org/2000/svg">
<path d="M20.4216 7.85311L14 2.71586C12.7451 1.71586 10.7843 1.70605 9.53924 2.70605L3.11767 7.85311C2.1961 8.58841 1.63727 10.059 1.83335 11.2159L3.06865 18.608C3.35296 20.2649 4.89218 21.5688 6.56865 21.5688H16.9608C18.6177 21.5688 20.1863 20.2355 20.4706 18.5982L21.7059 11.2061C21.8824 10.059 21.3236 8.58841 20.4216 7.85311ZM12.5 17.6472C12.5 18.0492 12.1667 18.3825 11.7647 18.3825C11.3628 18.3825 11.0294 18.0492 11.0294 17.6472V14.7061C11.0294 14.3041 11.3628 13.9708 11.7647 13.9708C12.1667 13.9708 12.5 14.3041 12.5 14.7061V17.6472Z" fill="#E63946"/>
</svg>
