<svg width="33" height="33" viewBox="0 0 33 33" fill="none" xmlns="http://www.w3.org/2000/svg">
<path fill-rule="evenodd" clip-rule="evenodd" d="M23.5475 17.2484C21.7099 17.9924 19.7264 18.4513 17.6518 18.5702C17.294 18.5907 16.9335 18.6011 16.5706 18.6011C16.2077 18.6011 15.8472 18.5907 15.4894 18.5702C13.4143 18.4513 11.4304 17.9922 9.59245 17.2479C5.7354 15.6859 2.52144 12.8676 0.458008 9.30056C3.67423 3.74067 9.68559 0 16.5706 0C23.4557 0 29.467 3.74067 32.6833 9.30056C30.6196 12.868 27.4051 15.6865 23.5475 17.2484Z" fill="white"/>
<path d="M9.5925 18.6965C9.14816 18.5166 8.71235 18.3199 8.28585 18.1074C6.89977 19.0838 5.72802 20.2999 4.8457 21.6874C6.34541 24.0457 8.68132 25.9089 11.4846 26.9416C12.8204 27.4337 14.2624 27.7372 15.7706 27.8158H17.3422C18.85 27.7372 21.5002 29.231 17.6519 33.0007C20.4556 31.968 26.7672 24.0459 28.267 21.6874C27.3872 20.3039 26.2197 19.0908 24.8387 18.1158C24.4172 18.3253 23.9865 18.5193 23.5476 18.697C21.71 19.441 19.7265 19.8999 17.6519 20.0188C17.2941 20.0393 16.9336 20.0497 16.5707 20.0497C16.2078 20.0497 15.8473 20.0393 15.4895 20.0188C13.4144 19.8999 11.4304 19.4408 9.5925 18.6965Z" fill="white"/>
<rect x="8.80078" y="6.92188" width="15.573" height="5.5618" rx="2.7809" fill="#162550"/>
<ellipse cx="20.882" cy="9.67201" rx="1.01966" ry="1.01966" fill="white"/>
<ellipse cx="16.5558" cy="23.3908" rx="1.01966" ry="1.01966" fill="#162550"/>
<ellipse cx="12.4777" cy="9.67201" rx="1.01966" ry="1.01966" fill="white"/>
<ellipse cx="12.4777" cy="23.3908" rx="1.01966" ry="1.01966" fill="#162550"/>
<ellipse cx="20.6349" cy="23.3908" rx="1.01966" ry="1.01966" fill="#162550"/>
</svg>
