<svg width="18" height="19" viewBox="0 0 18 19" fill="none" xmlns="http://www.w3.org/2000/svg">
<path d="M8.93832 2.18757e-06C9.70809 -0.000606362 10.4727 0.125756 11.2013 0.374002C10.5108 1.08786 10.0759 2.01009 9.96429 2.99696C9.85269 3.98384 10.0707 4.97991 10.5843 5.82993C11.098 6.67996 11.8784 7.33618 12.804 7.69633C13.7295 8.05648 14.7482 8.10031 15.7013 7.821L15.9383 7.743V10.527C15.9385 10.643 15.9588 10.758 15.9983 10.867L16.0443 10.974L17.7603 14.407C17.8398 14.566 17.8796 14.7419 17.8763 14.9196C17.873 15.0974 17.8266 15.2717 17.7412 15.4276C17.6558 15.5835 17.5338 15.7164 17.3858 15.8148C17.2378 15.9133 17.0681 15.9744 16.8913 15.993L16.7763 15.999H1.10033C0.922489 15.9991 0.747292 15.956 0.589746 15.8735C0.4322 15.791 0.297004 15.6715 0.195742 15.5254C0.0944803 15.3792 0.0301725 15.2106 0.00832937 15.0341C-0.0135138 14.8576 0.00775918 14.6785 0.0703251 14.512L0.116325 14.407L1.83333 10.974C1.88493 10.8702 1.91809 10.7582 1.93133 10.643L1.93833 10.528V7C1.93833 5.14349 2.67582 3.36301 3.98858 2.05025C5.30133 0.7375 7.08181 2.18757e-06 8.93832 2.18757e-06ZM14.4383 1C15.1014 1 15.7373 1.26339 16.2061 1.73224C16.6749 2.20108 16.9383 2.83696 16.9383 3.5C16.9383 4.16304 16.6749 4.79893 16.2061 5.26777C15.7373 5.73661 15.1014 6 14.4383 6C13.7753 6 13.1394 5.73661 12.6706 5.26777C12.2017 4.79893 11.9383 4.16304 11.9383 3.5C11.9383 2.83696 12.2017 2.20108 12.6706 1.73224C13.1394 1.26339 13.7753 1 14.4383 1ZM8.93832 19C8.31767 19.0003 7.7122 18.8081 7.20534 18.4499C6.69849 18.0917 6.31521 17.5852 6.10833 17H11.7683C11.5614 17.5852 11.1782 18.0917 10.6713 18.4499C10.1645 18.8081 9.55898 19.0003 8.93832 19Z" fill="white"/>
</svg>
