<svg width="21" height="21" viewBox="0 0 21 21" fill="none" xmlns="http://www.w3.org/2000/svg">
<path d="M18.7471 14.4865C18.7471 14.9385 18.5676 15.372 18.2479 15.6916C17.9283 16.0113 17.4948 16.1908 17.0428 16.1908H5.81829C5.36632 16.1909 4.93289 16.3705 4.61335 16.6902L2.73691 18.5666C2.65229 18.6512 2.5445 18.7088 2.42714 18.7322C2.30979 18.7555 2.18815 18.7435 2.07761 18.6977C1.96706 18.6519 1.87257 18.5744 1.80609 18.4749C1.73961 18.3754 1.70412 18.2585 1.7041 18.1388V4.2607C1.7041 3.80869 1.88366 3.37519 2.20328 3.05557C2.5229 2.73596 2.95639 2.5564 3.4084 2.5564H17.0428C17.4948 2.5564 17.9283 2.73596 18.2479 3.05557C18.5676 3.37519 18.7471 3.80869 18.7471 4.2607V14.4865Z" stroke="#E63946" stroke-width="1.7043" stroke-linecap="round" stroke-linejoin="round"/>
</svg>
