<svg width="21" height="20" viewBox="0 0 21 20" fill="none" xmlns="http://www.w3.org/2000/svg">
<path d="M19.9997 14.2497C19.9997 14.758 19.7977 15.2455 19.4383 15.605C19.0789 15.9644 18.5913 16.1663 18.083 16.1663H5.45984C4.95155 16.1664 4.46412 16.3685 4.10476 16.7279L1.99451 18.8382C1.89935 18.9333 1.77812 18.9981 1.64614 19.0244C1.51417 19.0506 1.37737 19.0371 1.25305 18.9856C1.12873 18.9341 1.02247 18.8469 0.947707 18.7351C0.87294 18.6232 0.833025 18.4917 0.833008 18.3571V2.74967C0.833008 2.24134 1.03494 1.75383 1.39439 1.39439C1.75383 1.03494 2.24134 0.833008 2.74967 0.833008H18.083C18.5913 0.833008 19.0789 1.03494 19.4383 1.39439C19.7977 1.75383 19.9997 2.24134 19.9997 2.74967V14.2497Z" stroke="#99A1AF" stroke-width="1.66597" stroke-linecap="round" stroke-linejoin="round"/>
</svg>
