<svg width="24" height="24" viewBox="0 0 24 24" fill="none" xmlns="http://www.w3.org/2000/svg">
<path d="M11.9216 10.657C11.8235 10.6472 11.7059 10.6472 11.598 10.657C9.26471 10.5786 7.41177 8.66682 7.41177 6.31388C7.41177 3.91192 9.35295 1.96094 11.7647 1.96094C14.1667 1.96094 16.1177 3.91192 16.1177 6.31388C16.1079 8.66682 14.2549 10.5786 11.9216 10.657Z" stroke="#A2A2A2" stroke-width="1.47059" stroke-linecap="round" stroke-linejoin="round"/>
<path d="M7.01959 14.2743C4.64704 15.8625 4.64704 18.4508 7.01959 20.0292C9.71566 21.8331 14.1372 21.8331 16.8333 20.0292C19.2059 18.441 19.2059 15.8527 16.8333 14.2743C14.147 12.4802 9.72547 12.4802 7.01959 14.2743Z" stroke="#A2A2A2" stroke-width="1.47059" stroke-linecap="round" stroke-linejoin="round"/>
</svg>
