<svg width="24" height="24" viewBox="0 0 24 24" fill="none" xmlns="http://www.w3.org/2000/svg">
<path d="M11.9219 10.6568C11.8239 10.647 11.7062 10.647 11.5984 10.6568C9.26505 10.5783 7.41211 8.66658 7.41211 6.31364C7.41211 3.91167 9.35329 1.96069 11.7651 1.96069C14.167 1.96069 16.118 3.91167 16.118 6.31364C16.1082 8.66658 14.2552 10.5783 11.9219 10.6568Z" stroke="#A2A2A2" stroke-width="1.47059" stroke-linecap="round" stroke-linejoin="round"/>
<path d="M7.01965 14.2745C4.6471 15.8628 4.6471 18.451 7.01965 20.0294C9.71572 21.8334 14.1373 21.8334 16.8334 20.0294C19.2059 18.4412 19.2059 15.853 16.8334 14.2745C14.1471 12.4804 9.72553 12.4804 7.01965 14.2745Z" stroke="#A2A2A2" stroke-width="1.47059" stroke-linecap="round" stroke-linejoin="round"/>
</svg>
