<svg width="21" height="21" viewBox="0 0 21 21" fill="none" xmlns="http://www.w3.org/2000/svg">
<path d="M5.96525 2.5564H3.40879C2.93816 2.5564 2.55664 2.93792 2.55664 3.40855V5.965C2.55664 6.43563 2.93816 6.81715 3.40879 6.81715H5.96525C6.43588 6.81715 6.8174 6.43563 6.8174 5.965V3.40855C6.8174 2.93792 6.43588 2.5564 5.96525 2.5564Z" stroke="#E63946" stroke-width="1.7043" stroke-linecap="round" stroke-linejoin="round"/>
<path d="M17.0434 2.5564H14.4869C14.0163 2.5564 13.6348 2.93792 13.6348 3.40855V5.965C13.6348 6.43563 14.0163 6.81715 14.4869 6.81715H17.0434C17.514 6.81715 17.8955 6.43563 17.8955 5.965V3.40855C17.8955 2.93792 17.514 2.5564 17.0434 2.5564Z" stroke="#E63946" stroke-width="1.7043" stroke-linecap="round" stroke-linejoin="round"/>
<path d="M5.96525 13.6345H3.40879C2.93816 13.6345 2.55664 14.016 2.55664 14.4867V17.0431C2.55664 17.5138 2.93816 17.8953 3.40879 17.8953H5.96525C6.43588 17.8953 6.8174 17.5138 6.8174 17.0431V14.4867C6.8174 14.016 6.43588 13.6345 5.96525 13.6345Z" stroke="#E63946" stroke-width="1.7043" stroke-linecap="round" stroke-linejoin="round"/>
<path d="M17.8955 13.6345H15.3391C14.8871 13.6345 14.4536 13.8141 14.1339 14.1337C13.8143 14.4533 13.6348 14.8868 13.6348 15.3388V17.8953" stroke="#E63946" stroke-width="1.7043" stroke-linecap="round" stroke-linejoin="round"/>
<path d="M17.8955 17.895V17.9034" stroke="#E63946" stroke-width="1.7043" stroke-linecap="round" stroke-linejoin="round"/>
<path d="M10.2256 5.96484V8.5213C10.2256 8.97331 10.046 9.4068 9.72642 9.72642C9.4068 10.046 8.97331 10.2256 8.5213 10.2256H5.96484" stroke="#E63946" stroke-width="1.7043" stroke-linecap="round" stroke-linejoin="round"/>
<path d="M2.55664 10.2258H2.56497" stroke="#E63946" stroke-width="1.7043" stroke-linecap="round" stroke-linejoin="round"/>
<path d="M10.2266 2.5564H10.2349" stroke="#E63946" stroke-width="1.7043" stroke-linecap="round" stroke-linejoin="round"/>
<path d="M10.2266 13.6345V13.6429" stroke="#E63946" stroke-width="1.7043" stroke-linecap="round" stroke-linejoin="round"/>
<path d="M13.6348 10.2258H14.4873" stroke="#E63946" stroke-width="1.7043" stroke-linecap="round" stroke-linejoin="round"/>
<path d="M17.8955 10.2258V10.2342" stroke="#E63946" stroke-width="1.7043" stroke-linecap="round" stroke-linejoin="round"/>
<path d="M10.2266 17.8955V17.043" stroke="#E63946" stroke-width="1.7043" stroke-linecap="round" stroke-linejoin="round"/>
</svg>
