<svg width="24" height="24" viewBox="0 0 24 24" fill="none" xmlns="http://www.w3.org/2000/svg">
<path d="M2.71569 9.80408C2.29412 9.80408 1.96078 9.47074 1.96078 9.04917V6.78447C1.96078 4.1276 4.12745 1.96094 6.78431 1.96094H9.04902C9.47059 1.96094 9.80392 2.29427 9.80392 2.71584C9.80392 3.13741 9.47059 3.47074 9.04902 3.47074H6.78431C4.95098 3.47074 3.47059 4.96094 3.47059 6.78447V9.04917C3.47059 9.47074 3.12745 9.80408 2.71569 9.80408Z" fill="white"/>
<path d="M20.8137 9.80408C20.402 9.80408 20.0588 9.47074 20.0588 9.04917V6.78447C20.0588 4.95113 18.5686 3.47074 16.7451 3.47074H14.4804C14.0588 3.47074 13.7255 3.1276 13.7255 2.71584C13.7255 2.30407 14.0588 1.96094 14.4804 1.96094H16.7451C19.402 1.96094 21.5686 4.1276 21.5686 6.78447V9.04917C21.5686 9.47074 21.2353 9.80408 20.8137 9.80408Z" fill="white"/>
<path d="M16.7451 21.5681H15.3824C14.9706 21.5681 14.6275 21.2348 14.6275 20.8132C14.6275 20.4014 14.9608 20.0583 15.3824 20.0583H16.7451C18.5785 20.0583 20.0589 18.5681 20.0589 16.7446V15.3916C20.0589 14.9799 20.3922 14.6367 20.8138 14.6367C21.2255 14.6367 21.5687 14.9701 21.5687 15.3916V16.7446C21.5687 19.4014 19.402 21.5681 16.7451 21.5681Z" fill="white"/>
<path d="M9.04902 21.5677H6.78431C4.12745 21.5677 1.96078 19.4011 1.96078 16.7442V14.4795C1.96078 14.0579 2.29412 13.7246 2.71569 13.7246C3.13726 13.7246 3.47059 14.0579 3.47059 14.4795V16.7442C3.47059 18.5776 4.96079 20.0579 6.78431 20.0579H9.04902C9.46078 20.0579 9.80392 20.3913 9.80392 20.8128C9.80392 21.2344 9.47059 21.5677 9.04902 21.5677Z" fill="white"/>
<path d="M18.0981 11.0098H16.7647H6.76472H5.43139C5.00982 11.0098 4.67648 11.3529 4.67648 11.7647C4.67648 12.1764 5.00982 12.5196 5.43139 12.5196H6.76472H16.7647H18.0981C18.5196 12.5196 18.853 12.1764 18.853 11.7647C18.853 11.3529 18.5196 11.0098 18.0981 11.0098Z" fill="white"/>
<path d="M6.76474 13.6668V13.9904C6.76474 15.6178 8.07847 16.9315 9.70592 16.9315H13.8236C15.451 16.9315 16.7647 15.6178 16.7647 13.9904V13.6668C16.7647 13.5492 16.6765 13.4609 16.5589 13.4609H6.97062C6.85298 13.4609 6.76474 13.5492 6.76474 13.6668Z" fill="white"/>
<path d="M6.76474 9.86236V9.53883C6.76474 7.91138 8.07847 6.59766 9.70592 6.59766H13.8236C15.451 6.59766 16.7647 7.91138 16.7647 9.53883V9.86236C16.7647 9.98001 16.6765 10.0682 16.5589 10.0682H6.97062C6.85298 10.0682 6.76474 9.98001 6.76474 9.86236Z" fill="white"/>
</svg>
