<svg width="20" height="20" viewBox="0 0 20 20" fill="none" xmlns="http://www.w3.org/2000/svg">
<path d="M8.32985 3.33203L6.66388 4.998" stroke="#E63946" stroke-width="1.66597" stroke-linecap="round" stroke-linejoin="round"/>
<path d="M14.1608 15.8271V17.4931" stroke="#E63946" stroke-width="1.66597" stroke-linecap="round" stroke-linejoin="round"/>
<path d="M1.66599 9.99609H18.3257" stroke="#E63946" stroke-width="1.66597" stroke-linecap="round" stroke-linejoin="round"/>
<path d="M5.8309 15.8271V17.4931" stroke="#E63946" stroke-width="1.66597" stroke-linecap="round" stroke-linejoin="round"/>
<path d="M7.49687 4.16515L6.34818 3.01647C6.10729 2.77446 5.80144 2.60744 5.46762 2.53562C5.1338 2.4638 4.78631 2.49025 4.46721 2.61177C4.14811 2.7333 3.87106 2.94469 3.66958 3.22037C3.4681 3.49606 3.35082 3.82422 3.33194 4.16515V14.161C3.33194 14.6028 3.50746 15.0266 3.81989 15.339C4.13232 15.6514 4.55607 15.827 4.99791 15.827H14.9937C15.4356 15.827 15.8593 15.6514 16.1718 15.339C16.4842 15.0266 16.6597 14.6028 16.6597 14.161V9.99606" stroke="#E63946" stroke-width="1.66597" stroke-linecap="round" stroke-linejoin="round"/>
</svg>
