<svg width="23" height="20" viewBox="0 0 23 20" fill="none" xmlns="http://www.w3.org/2000/svg">
<path d="M11.5 20L9.8325 18.5831C7.89667 16.9301 6.29625 15.5041 5.03125 14.3052C3.76625 13.1063 2.76 12.0298 2.0125 11.0758C1.265 10.1217 0.7429 9.24541 0.4462 8.44687C0.1495 7.64832 0.000766667 6.83088 0 5.99455C0 4.28701 0.60375 2.86104 1.81125 1.71662C3.01875 0.572207 4.52333 0 6.325 0C7.32167 0 8.27042 0.199818 9.17125 0.599455C10.0721 0.999092 10.8483 1.56222 11.5 2.28883C12.1517 1.56222 12.9279 0.999092 13.8287 0.599455C14.7296 0.199818 15.6783 0 16.675 0C18.4767 0 19.9812 0.572207 21.1887 1.71662C22.3962 2.86104 23 4.28701 23 5.99455C23 6.83015 22.8517 7.64759 22.555 8.44687C22.2583 9.24614 21.7358 10.1224 20.9875 11.0758C20.2392 12.0291 19.233 13.1055 17.9688 14.3052C16.7045 15.5048 15.1041 16.9308 13.1675 18.5831L11.5 20ZM11.5 17.0572C13.34 15.495 14.8542 14.1555 16.0425 13.0387C17.2308 11.9219 18.17 10.95 18.86 10.1232C19.55 9.29628 20.0292 8.56022 20.2975 7.91499C20.5658 7.26975 20.7 6.62961 20.7 5.99455C20.7 4.90463 20.3167 3.99637 19.55 3.26975C18.7833 2.54314 17.825 2.17984 16.675 2.17984C15.7742 2.17984 14.9404 2.42034 14.1737 2.90136C13.4071 3.38238 12.88 3.99564 12.5925 4.74114H10.4075C10.12 3.99637 9.59292 3.38347 8.82625 2.90245C8.05958 2.42144 7.22583 2.18056 6.325 2.17984C5.175 2.17984 4.21667 2.54314 3.45 3.26975C2.68333 3.99637 2.3 4.90463 2.3 5.99455C2.3 6.63034 2.43417 7.27084 2.7025 7.91608C2.97083 8.56131 3.45 9.297 4.14 10.1232C4.83 10.9493 5.76917 11.9212 6.9575 13.0387C8.14583 14.1562 9.66 15.4957 11.5 17.0572Z" fill="#A2A2A2"/>
</svg>
